# xmcd
#
# Track frame offsets:
#	150
#	12388
#	28680
#	42075
#	55598
#	69035
#	79598
#	90850
#	106500
#	124048
#	136543
#	147250
#
# Disc length: 2103 seconds
# Revision: 0
# Processed by: cddbd v1.5.2PL0 Copyright (c) Steve Scherf et al.
# Submitted via: dBpowerAMP V12.0
#
DISCID=7f08350c
DTITLE=Crystal Gayle - All-Time Greatest Hits
DYEAR=1977
DGENRE=Country*
TTITLE0=Don't It Make My Brown Eyes Blue
TTITLE1=I'll Get Over You
TTITLE2=Talking In Your Sleep
TTITLE3=Why Have You Left The One You Left Me For
TTITLE4=I'll Do It All Over Again
TTITLE5=Wrong Road Again
TTITLE6=Somebody Loves You
TTITLE7=When I Dream
TTITLE8=You Never Miss A Real Good Thing {Till He Says Goodbye}
TTITLE9=I've Cried {The Blues Right Out Of My Eyes}
TTITLE10=Everybody Oughta Cry
TTITLE11=I Hope You're Havin' Better Luck Than Me
EXTD=
EXTT0=
EXTT1=
EXTT2=
EXTT3=
EXTT4=
EXTT5=
EXTT6=
EXTT7=
EXTT8=
EXTT9=
EXTT10=
EXTT11=
PLAYORDER=
